<svg xmlns="http://www.w3.org/2000/svg" width="28" height="28" fill="none"><path stroke="currentColor" stroke-linecap="round" stroke-linejoin="round" stroke-width="2" d="m7.583 15.166.915 1.83c.31.62.465.93.672 1.198a3.5 3.5 0 0 0 .635.636c.268.207.578.361 1.198.671l1.83.915-1.83.915c-.62.31-.93.465-1.198.672a3.5 3.5 0 0 0-.635.635c-.207.269-.362.578-.672 1.198l-.915 1.83-.915-1.83c-.31-.62-.465-.93-.672-1.198a3.5 3.5 0 0 0-.635-.635c-.268-.207-.578-.362-1.198-.672l-1.83-.915 1.83-.915c.62-.31.93-.465 1.198-.671a3.5 3.5 0 0 0 .635-.636c.207-.268.362-.578.672-1.197l.915-1.83zM17.5 2.333l1.375 3.575c.329.856.493 1.283.75 1.643.226.319.504.598.823.824.36.256.788.42 1.643.75l3.575 1.375-3.575 1.375c-.855.329-1.283.493-1.643.75a3.498 3.498 0 0 0-.824.823c-.256.36-.42.788-.75 1.643L17.5 18.666l-1.375-3.575c-.33-.855-.494-1.283-.75-1.643a3.5 3.5 0 0 0-.824-.824c-.36-.256-.787-.42-1.643-.75L9.333 10.5l3.575-1.375c.856-.33 1.283-.494 1.643-.75a3.5 3.5 0 0 0 .824-.824c.256-.36.42-.787.75-1.643L17.5 2.333z"/></svg>