<svg xmlns="http://www.w3.org/2000/svg" width="60" height="60" fill="none"><path fill="#0A0A0A" d="M30.132 5a2.5 2.5 0 1 0 0-5 2.5 2.5 0 0 0 0 5zm-7.123.902a2.5 2.5 0 1 0 0-5 2.5 2.5 0 0 0 0 5zm-6.646 2.717a2.5 2.5 0 1 0 0-5 2.5 2.5 0 0 0 0 5zm-5.715 4.342a2.5 2.5 0 1 0 0-5 2.5 2.5 0 0 0 0 5zM6.25 18.636a2.5 2.5 0 1 0 0-5 2.5 2.5 0 0 0 0 5zm-2.78 6.619a2.5 2.5 0 1 0 0-5 2.5 2.5 0 0 0 0 5zm-.97 7.114a2.5 2.5 0 1 0 0-5 2.5 2.5 0 0 0 0 5zm.902 7.121a2.5 2.5 0 1 0 0-4.999 2.5 2.5 0 0 0 0 5zm2.717 6.646a2.5 2.5 0 1 0 0-5 2.5 2.5 0 0 0 0 5zm4.343 5.716a2.5 2.5 0 1 0 0-5 2.5 2.5 0 0 0 0 5zm5.675 4.398a2.5 2.5 0 1 0 0-5 2.5 2.5 0 0 0 0 5zm6.619 2.779a2.5 2.5 0 1 0 0-5 2.5 2.5 0 0 0 0 5zm7.113.971a2.5 2.5 0 1 0 0-5 2.5 2.5 0 0 0 0 5zm7.122-.903a2.5 2.5 0 1 0 0-5 2.5 2.5 0 0 0 0 5zm6.645-2.716a2.5 2.5 0 1 0 0-5 2.5 2.5 0 0 0 0 5zm5.717-4.342a2.5 2.5 0 1 0 0-5 2.5 2.5 0 0 0 0 5zm4.397-5.675a2.5 2.5 0 1 0 0-5 2.5 2.5 0 0 0 0 5zm2.78-6.62a2.5 2.5 0 1 0 0-5 2.5 2.5 0 0 0 0 5zm.97-7.113a2.5 2.5 0 1 0 0-5 2.5 2.5 0 0 0 0 5zm-.903-7.123a2.5 2.5 0 1 0 0-5 2.5 2.5 0 0 0 0 5zm-2.715-6.645a2.5 2.5 0 1 0 0-5 2.5 2.5 0 0 0 0 5zm-4.343-5.717a2.5 2.5 0 1 0 0-5 2.5 2.5 0 0 0 0 5zM43.864 8.75a2.5 2.5 0 1 0 0-5 2.5 2.5 0 0 0 0 5zm-6.62-2.78a2.5 2.5 0 1 0 0-5 2.5 2.5 0 0 0 0 5z"/></svg>