<svg xmlns="http://www.w3.org/2000/svg" viewBox="0 0 64 64" fill="none">
  <ellipse cx="32" cy="16" rx="14" ry="6" stroke="currentColor" stroke-width="3"/>
  <path d="M18 16V34C18 37.314 24.268 40 32 40C39.732 40 46 37.314 46 34V16" stroke="currentColor" stroke-width="3"/>
  <path d="M18 25C18 28.314 24.268 31 32 31C39.732 31 46 28.314 46 25" stroke="currentColor" stroke-width="3"/>
  <path d="M18 34V48C18 51.314 24.268 54 32 54C39.732 54 46 51.314 46 48V34" stroke="currentColor" stroke-width="3"/>
  <path d="M18 43C18 46.314 24.268 49 32 49C39.732 49 46 46.314 46 43" stroke="currentColor" stroke-width="3"/>
</svg>
