<svg xmlns="http://www.w3.org/2000/svg" width="60" height="60" fill="none"><path fill="#3B3B3B" d="M30 5.39A2.695 2.695 0 1 0 30 0a2.695 2.695 0 0 0 0 5.39zm0 6.825a2.695 2.695 0 1 0 0-5.389 2.695 2.695 0 0 0 0 5.39zm0 6.827a2.695 2.695 0 1 0 0-5.39 2.695 2.695 0 0 0 0 5.39zm0 6.827a2.695 2.695 0 1 0 0-5.39 2.695 2.695 0 0 0 0 5.39zm0 6.826a2.695 2.695 0 1 0 0-5.39 2.695 2.695 0 0 0 0 5.39zM16.347 19.042a2.695 2.695 0 1 0 0-5.39 2.695 2.695 0 0 0 0 5.39zm6.827 0a2.695 2.695 0 1 0 0-5.39 2.695 2.695 0 0 0 0 5.39z"/><path fill="#3B3B3B" d="M30 19.042a2.695 2.695 0 1 0 0-5.39 2.695 2.695 0 0 0 0 5.39zm-6.826-6.827a2.695 2.695 0 1 0 0-5.389 2.695 2.695 0 0 0 0 5.39zm6.826 0a2.695 2.695 0 1 0 0-5.389 2.695 2.695 0 0 0 0 5.39zm6.826 0a2.695 2.695 0 1 0 0-5.389 2.695 2.695 0 0 0 0 5.39z"/><path fill="#3B3B3B" d="M36.826 12.215a2.695 2.695 0 1 0 0-5.389 2.695 2.695 0 0 0 0 5.39zm0 6.827a2.695 2.695 0 1 0 0-5.39 2.695 2.695 0 0 0 0 5.39zm6.827 0a2.695 2.695 0 1 0 0-5.39 2.695 2.695 0 0 0 0 5.39zM30 39.521a2.695 2.695 0 1 0 0-5.39 2.695 2.695 0 0 0 0 5.39zm0 6.826a2.695 2.695 0 1 0 0-5.389 2.695 2.695 0 0 0 0 5.39zM9.52 25.869a2.695 2.695 0 1 0 0-5.39 2.695 2.695 0 0 0 0 5.39zm6.827 0a2.695 2.695 0 1 0 0-5.39 2.695 2.695 0 0 0 0 5.39zm6.827 0a2.695 2.695 0 1 0 0-5.39 2.695 2.695 0 0 0 0 5.39z"/><path fill="#3B3B3B" d="M30 25.869a2.695 2.695 0 1 0 0-5.39 2.695 2.695 0 0 0 0 5.39z" opacity=".8"/><path fill="#3B3B3B" d="M36.826 25.869a2.695 2.695 0 1 0 0-5.39 2.695 2.695 0 0 0 0 5.39zm-13.652 0a2.695 2.695 0 1 0 0-5.39 2.695 2.695 0 0 0 0 5.39zm-6.827 0a2.695 2.695 0 1 0 0-5.39 2.695 2.695 0 0 0 0 5.39zm27.306 0a2.695 2.695 0 1 0 0-5.39 2.695 2.695 0 0 0 0 5.39zm6.826 0a2.695 2.695 0 1 0 0-5.39 2.695 2.695 0 0 0 0 5.39zM30 53.173a2.695 2.695 0 1 0 0-5.389 2.695 2.695 0 0 0 0 5.39zM30 60a2.695 2.695 0 1 0 0-5.39A2.695 2.695 0 0 0 30 60zM9.52 39.521a2.695 2.695 0 1 0 0-5.39 2.695 2.695 0 0 0 0 5.39zm6.827 0a2.695 2.695 0 1 0 0-5.39 2.695 2.695 0 0 0 0 5.39zm6.827 0a2.695 2.695 0 1 0 0-5.39 2.695 2.695 0 0 0 0 5.39z"/><path fill="#3B3B3B" d="M9.52 39.521a2.695 2.695 0 1 0 0-5.39 2.695 2.695 0 0 0 0 5.39z"/><path fill="#3B3B3B" d="M30 39.521a2.695 2.695 0 1 0 0-5.39 2.695 2.695 0 0 0 0 5.39z" opacity=".8"/><path fill="#3B3B3B" d="M2.695 32.695a2.695 2.695 0 1 0 0-5.39 2.695 2.695 0 0 0 0 5.39zm6.825 0a2.695 2.695 0 1 0 0-5.39 2.695 2.695 0 0 0 0 5.39zm6.827 0a2.695 2.695 0 1 0 0-5.39 2.695 2.695 0 0 0 0 5.39zm6.827 0a2.695 2.695 0 1 0 0-5.39 2.695 2.695 0 0 0 0 5.39z"/><path fill="#3B3B3B" d="M30 32.695a2.695 2.695 0 1 0 0-5.39 2.695 2.695 0 0 0 0 5.39z" opacity=".8"/><path fill="#3B3B3B" d="M16.347 46.347a2.695 2.695 0 1 0 0-5.39 2.695 2.695 0 0 0 0 5.39zm6.827 0a2.695 2.695 0 1 0 0-5.389 2.695 2.695 0 0 0 0 5.39zm6.826 0a2.695 2.695 0 1 0 0-5.389 2.695 2.695 0 0 0 0 5.39zm-6.826 6.826a2.695 2.695 0 1 0 0-5.389 2.695 2.695 0 0 0 0 5.39zm6.826 0a2.695 2.695 0 1 0 0-5.389 2.695 2.695 0 0 0 0 5.39zm6.826 0a2.695 2.695 0 1 0 0-5.389 2.695 2.695 0 0 0 0 5.39z"/><path fill="#3B3B3B" d="M23.174 53.173a2.695 2.695 0 1 0 0-5.389 2.695 2.695 0 0 0 0 5.39zm13.652-6.826a2.695 2.695 0 1 0 0-5.39 2.695 2.695 0 0 0 0 5.39zm6.827 0a2.695 2.695 0 1 0 0-5.389 2.695 2.695 0 0 0 0 5.39zm-20.479 0a2.695 2.695 0 1 0 0-5.389 2.695 2.695 0 0 0 0 5.39zm-6.827 0a2.695 2.695 0 1 0 0-5.39 2.695 2.695 0 0 0 0 5.39zm0-13.652a2.695 2.695 0 1 0 0-5.39 2.695 2.695 0 0 0 0 5.39zm-6.827 0a2.695 2.695 0 1 0 0-5.39 2.695 2.695 0 0 0 0 5.39zm27.306 0a2.695 2.695 0 1 0 0-5.39 2.695 2.695 0 0 0 0 5.39zm6.827 0a2.695 2.695 0 1 0 0-5.39 2.695 2.695 0 0 0 0 5.39z"/><path fill="#3B3B3B" d="M23.174 32.695a2.695 2.695 0 1 0 0-5.39 2.695 2.695 0 0 0 0 5.39z" opacity=".8"/><path fill="#3B3B3B" d="M50.479 32.695a2.695 2.695 0 1 0 0-5.39 2.695 2.695 0 0 0 0 5.39zm6.826 0a2.695 2.695 0 1 0 0-5.39 2.695 2.695 0 0 0 0 5.39z"/><path fill="#3B3B3B" d="M36.826 32.695a2.695 2.695 0 1 0 0-5.39 2.695 2.695 0 0 0 0 5.39z" opacity=".8"/><path fill="#3B3B3B" d="M36.826 39.521a2.695 2.695 0 1 0 0-5.39 2.695 2.695 0 0 0 0 5.39zm-20.479 0a2.695 2.695 0 1 0 0-5.39 2.695 2.695 0 0 0 0 5.39zm27.306 0a2.695 2.695 0 1 0 0-5.39 2.695 2.695 0 0 0 0 5.39zm6.826 0a2.695 2.695 0 1 0 0-5.39 2.695 2.695 0 0 0 0 5.39z"/></svg>