<svg xmlns="http://www.w3.org/2000/svg" width="60" height="60" fill="none"><path fill="#0A0A0A" d="M29.685 4.2a2.1 2.1 0 1 0 0-4.2 2.1 2.1 0 0 0 0 4.2zM15.777 8.095a2.1 2.1 0 1 0 0-4.2 2.1 2.1 0 0 0 0 4.2zM5.681 18.424a2.1 2.1 0 1 0 0-4.201 2.1 2.1 0 0 0 0 4.2zM2.1 32.416a2.1 2.1 0 1 0 0-4.201 2.1 2.1 0 0 0 0 4.2zm3.895 13.907a2.1 2.1 0 1 0 0-4.2 2.1 2.1 0 0 0 0 4.2zM16.323 56.42a2.1 2.1 0 1 0 0-4.201 2.1 2.1 0 0 0 0 4.2zM30.315 60a2.1 2.1 0 1 0 0-4.201 2.1 2.1 0 0 0 0 4.2zm13.907-3.895a2.1 2.1 0 1 0 0-4.2 2.1 2.1 0 0 0 0 4.2zM54.32 45.778a2.1 2.1 0 1 0 0-4.2 2.1 2.1 0 0 0 0 4.2zm3.58-13.992a2.1 2.1 0 1 0 0-4.2 2.1 2.1 0 0 0 0 4.2zm-3.895-13.907a2.1 2.1 0 1 0 0-4.201 2.1 2.1 0 0 0 0 4.2zM43.678 7.782a2.1 2.1 0 1 0 0-4.201 2.1 2.1 0 0 0 0 4.2zm-13.885 5.194a1.387 1.387 0 1 0 0-2.773 1.387 1.387 0 0 0 0 2.773zm-9.178 2.57a1.387 1.387 0 1 0 0-2.773 1.387 1.387 0 0 0 0 2.773zm-6.663 6.816a1.387 1.387 0 1 0 0-2.773 1.387 1.387 0 0 0 0 2.773zm-2.362 9.233a1.387 1.387 0 1 0 0-2.774 1.387 1.387 0 0 0 0 2.773zm2.57 9.177a1.387 1.387 0 1 0 0-2.773 1.387 1.387 0 0 0 0 2.773zm6.816 6.663a1.387 1.387 0 1 0 0-2.773 1.387 1.387 0 0 0 0 2.773zm9.231 2.363a1.387 1.387 0 1 0 0-2.774 1.387 1.387 0 0 0 0 2.774zm9.179-2.57a1.387 1.387 0 1 0 0-2.773 1.387 1.387 0 0 0 0 2.773zm6.663-6.816a1.387 1.387 0 1 0 0-2.773 1.387 1.387 0 0 0 0 2.773zm2.362-9.232a1.387 1.387 0 1 0 0-2.774 1.387 1.387 0 0 0 0 2.774zm-2.571-9.177a1.387 1.387 0 1 0 0-2.773 1.387 1.387 0 0 0 0 2.773zm-6.815-6.664a1.387 1.387 0 1 0 0-2.774 1.387 1.387 0 0 0 0 2.774zm-9.135 5.707a.729.729 0 1 0 0-1.457.729.729 0 0 0 0 1.457zm-4.826 1.353a.729.729 0 1 0 0-1.458.729.729 0 0 0 0 1.458zm-3.504 3.585a.729.729 0 1 0 0-1.458.729.729 0 0 0 0 1.458zm-1.243 4.854a.729.729 0 1 0 0-1.457.729.729 0 0 0 0 1.457zm1.353 4.825a.729.729 0 1 0 0-1.457.729.729 0 0 0 0 1.457zm3.583 3.507a.729.729 0 1 0 0-1.457.729.729 0 0 0 0 1.457zm4.857 1.242a.729.729 0 1 0 0-1.457.729.729 0 0 0 0 1.457zm4.825-1.353a.729.729 0 1 0 0-1.457.729.729 0 0 0 0 1.457zm3.506-3.582a.729.729 0 1 0 0-1.457.729.729 0 0 0 0 1.457zm1.243-4.859a.729.729 0 1 0 0-1.457.729.729 0 0 0 0 1.457zm-1.354-4.824a.729.729 0 1 0 0-1.457.729.729 0 0 0 0 1.457zm-3.582-3.504a.729.729 0 1 0 0-1.458.729.729 0 0 0 0 1.457z"/></svg>